# xmcd
#
# Track frame offsets: 
#        150
#        24992
#        46570
#        69867
#        91166
#        122158
#        136844
#        151516
#        168802
#        184960
#        200788
#
# Disc length: 2852 seconds
#
# Revision: 0
# Processed by: cddbd v1.5.2PL0 Copyright (c) Steve Scherf et al.
# Submitted via: ExactAudioCopy v1.0b3
#
DISCID=7e0b220b
DTITLE=Queenie and The Blue Cats - Another Blue Day
DYEAR=2008
DGENRE=Blues
TTITLE0=Cork in a Bottle
TTITLE1=Boss Lady
TTITLE2=Blues for Otis (Elevator Slide)
TTITLE3=December Again
TTITLE4=Blue Day
TTITLE5=Joe's Song
TTITLE6=Woman of the Blues
TTITLE7=You Shook Me
TTITLE8=Crossdresser's Blues
TTITLE9=Too Tired
TTITLE10=Watermelon
EXTD=
EXTT0=
EXTT1=
EXTT2=
EXTT3=
EXTT4=
EXTT5=
EXTT6=
EXTT7=
EXTT8=
EXTT9=
EXTT10=
PLAYORDER=
